<svg width="16" height="16" viewBox="0 0 16 16" fill="none" xmlns="http://www.w3.org/2000/svg">
<path d="M11.3578 6.18917C11.6003 5.85338 11.5247 5.38456 11.1889 5.14205C10.8531 4.89953 10.3843 4.97514 10.1418 5.31094L7.43572 9.05776L5.80723 7.24833C5.53014 6.94045 5.05592 6.91549 4.74804 7.19258C4.44016 7.46968 4.4152 7.9439 4.69229 8.25178L6.94229 10.7518C7.09393 10.9203 7.31364 11.0111 7.53999 10.999C7.76634 10.9868 7.97505 10.8729 8.10777 10.6892L11.3578 6.18917Z" fill="#474E5A"/>
<path fill-rule="evenodd" clip-rule="evenodd" d="M4.82798 14.2188L7.08376 15.7227C7.35503 15.9035 7.67376 16 7.99979 16C8.32581 16 8.64454 15.9035 8.91581 15.7227L11.1716 14.2188C13.2667 12.822 14.582 10.5203 14.7217 8.00617L14.9705 3.52775C14.9864 3.24115 14.7585 2.9985 14.4764 2.94568C12.7463 2.62173 9.96821 0.936793 8.9191 0.271047C8.64382 0.096362 8.32581 0 7.99979 0C7.67376 0 7.35576 0.0963626 7.08048 0.271048C6.03136 0.936798 3.2533 2.62174 1.52318 2.94568C1.24104 2.99851 1.01318 3.24115 1.02911 3.52775L1.27791 8.00617C1.41758 10.5203 2.73283 12.822 4.82798 14.2188ZM2.7756 7.92296L2.57019 4.22569C3.47484 3.94652 4.43707 3.49215 5.2524 3.06572C6.34606 2.49371 7.34189 1.88169 7.88418 1.53756C7.92965 1.50871 7.97059 1.5 7.99979 1.5C8.02899 1.5 8.06993 1.50871 8.1154 1.53756C8.65768 1.88169 9.65352 2.4937 10.7472 3.06571C11.5625 3.49215 12.5247 3.94651 13.4294 4.22569L13.224 7.92296C13.1105 9.96573 12.0419 11.8359 10.3395 12.9707L8.08376 14.4746C8.05889 14.4912 8.02968 14.5 7.99979 14.5C7.9699 14.5 7.94068 14.4912 7.91582 14.4746L5.66003 12.9707C3.95773 11.8359 2.88909 9.96573 2.7756 7.92296Z" fill="#474E5A"/>
</svg>
